<svg width="351" height="1013" viewBox="0 0 351 1013" fill="none" xmlns="http://www.w3.org/2000/svg">
<g filter="url(#filter0_f_31_20)">
<path d="M-69.7224 493.011C-0.513855 796.511 -268.301 744.511 -394.222 744.511C-666.222 825.011 -525.722 623.35 -525.722 493.011C-427.014 509.011 -423.643 257.011 -297.722 257.011C-30.5139 216.011 -69.7224 362.672 -69.7224 493.011Z" fill="url(#paint0_linear_31_20)"/>
</g>
<g filter="url(#filter1_f_31_20)">
<path d="M95.9391 484.964C95.9391 586.584 95.9391 924.464 -86.5608 668.964C-541.561 836.464 -269.061 586.584 -269.061 484.964C-269.061 383.343 -128.561 484.964 -86.5608 300.964C14.2312 300.964 122.939 238.964 95.9391 484.964Z" fill="url(#paint1_linear_31_20)"/>
</g>
<defs>
<filter id="filter0_f_31_20" x="-812" y="0" width="1003.52" height="1012.93" filterUnits="userSpaceOnUse" color-interpolation-filters="sRGB">
<feFlood flood-opacity="0" result="BackgroundImageFix"/>
<feBlend mode="normal" in="SourceGraphic" in2="BackgroundImageFix" result="shape"/>
<feGaussianBlur stdDeviation="125" result="effect1_foregroundBlur_31_20"/>
</filter>
<filter id="filter1_f_31_20" x="-600" y="44" width="950.122" height="968.516" filterUnits="userSpaceOnUse" color-interpolation-filters="sRGB">
<feFlood flood-opacity="0" result="BackgroundImageFix"/>
<feBlend mode="normal" in="SourceGraphic" in2="BackgroundImageFix" result="shape"/>
<feGaussianBlur stdDeviation="125" result="effect1_foregroundBlur_31_20"/>
</filter>
<linearGradient id="paint0_linear_31_20" x1="-310.239" y1="250" x2="-310.239" y2="762.931" gradientUnits="userSpaceOnUse">
<stop stop-color="#0E1624"/>
<stop offset="1" stop-color="#174CA9" stop-opacity="0.12"/>
</linearGradient>
<linearGradient id="paint1_linear_31_20" x1="-124.939" y1="294" x2="-124.939" y2="762.516" gradientUnits="userSpaceOnUse">
<stop stop-color="#ED3683"/>
<stop offset="1" stop-color="#2B7CDB" stop-opacity="0.81"/>
</linearGradient>
</defs>
</svg>
