<svg width="44" height="44" viewBox="0 0 44 44" fill="none" xmlns="http://www.w3.org/2000/svg">
<path d="M34.738 20.372C33.9368 14.0617 28.5322 9.16666 22.0073 9.16666C16.9547 9.16666 12.5657 12.1202 10.5618 16.775C6.62383 17.952 3.674 21.67 3.674 25.6667C3.674 30.7212 7.78616 34.8333 12.8407 34.8333H14.674V31.1667H12.8407C9.80833 31.1667 7.34066 28.699 7.34066 25.6667C7.34066 23.0927 9.53883 20.6122 12.2412 20.1373L13.3063 19.9503L13.6583 18.9273C14.9472 15.1672 18.1463 12.8333 22.0073 12.8333C27.0618 12.8333 31.174 16.9455 31.174 22V23.8333H33.0073C35.0295 23.8333 36.674 25.4778 36.674 27.5C36.674 29.5222 35.0295 31.1667 33.0073 31.1667H29.3407V34.8333H33.0073C37.0517 34.8333 40.3407 31.5443 40.3407 27.5C40.3385 25.8564 39.7854 24.2611 38.7697 22.9689C37.7541 21.6767 36.3345 20.7624 34.738 20.372Z" fill="white"/>
<path d="M23.8407 25.6667V18.3333H20.174V25.6667H14.674L22.0073 34.8333L29.3407 25.6667H23.8407Z" fill="white"/>
</svg>
