<svg width="380" height="850" viewBox="0 0 380 850" fill="none" xmlns="http://www.w3.org/2000/svg">
<g filter="url(#filter0_f_31_5)">
<path d="M30.3323 415.819C70.5873 622.914 -85.1708 587.431 -158.412 587.431C-316.621 642.361 -234.899 504.757 -234.899 415.819C-177.486 426.737 -175.525 254.784 -102.283 254.784C53.1379 226.808 30.3323 326.882 30.3323 415.819Z" fill="url(#paint0_linear_31_5)"/>
</g>
<g filter="url(#filter1_f_31_5)">
<path d="M126.689 410.328C126.689 479.669 126.689 710.222 20.5383 535.881C-244.111 650.175 -85.6125 479.669 -85.6125 410.328C-85.6125 340.987 -3.89091 410.328 20.5383 284.775C79.1638 284.775 142.394 242.469 126.689 410.328Z" fill="url(#paint1_linear_31_5)"/>
</g>
<defs>
<filter id="filter0_f_31_5" x="-506" y="3.8147e-06" width="792.873" height="850" filterUnits="userSpaceOnUse" color-interpolation-filters="sRGB">
<feFlood flood-opacity="0" result="BackgroundImageFix"/>
<feBlend mode="normal" in="SourceGraphic" in2="BackgroundImageFix" result="shape"/>
<feGaussianBlur stdDeviation="125" result="effect1_foregroundBlur_31_5"/>
</filter>
<filter id="filter1_f_31_5" x="-382.691" y="30.0235" width="761.813" height="819.693" filterUnits="userSpaceOnUse" color-interpolation-filters="sRGB">
<feFlood flood-opacity="0" result="BackgroundImageFix"/>
<feBlend mode="normal" in="SourceGraphic" in2="BackgroundImageFix" result="shape"/>
<feGaussianBlur stdDeviation="125" result="effect1_foregroundBlur_31_5"/>
</filter>
<linearGradient id="paint0_linear_31_5" x1="-109.563" y1="250" x2="-109.563" y2="600" gradientUnits="userSpaceOnUse">
<stop stop-color="#0E1624"/>
<stop offset="1" stop-color="#174CA9" stop-opacity="0.12"/>
</linearGradient>
<linearGradient id="paint1_linear_31_5" x1="-1.78432" y1="280.024" x2="-1.78432" y2="599.717" gradientUnits="userSpaceOnUse">
<stop stop-color="#ED3683"/>
<stop offset="1" stop-color="#2B7CDB" stop-opacity="0.81"/>
</linearGradient>
</defs>
</svg>
