<svg width="44" height="44" viewBox="0 0 44 44" fill="none" xmlns="http://www.w3.org/2000/svg">
<path d="M36.6667 5.5H7.33333C6.8471 5.5 6.38079 5.69315 6.03697 6.03697C5.69315 6.38079 5.5 6.8471 5.5 7.33333V36.6667C5.5 37.1529 5.69315 37.6192 6.03697 37.963C6.38079 38.3068 6.8471 38.5 7.33333 38.5H36.6667C37.1529 38.5 37.6192 38.3068 37.963 37.963C38.3068 37.6192 38.5 37.1529 38.5 36.6667V7.33333C38.5 6.8471 38.3068 6.38079 37.963 6.03697C37.6192 5.69315 37.1529 5.5 36.6667 5.5ZM15.2882 33.6178H10.3895V17.8695H15.2882V33.6178ZM12.8388 15.719C12.0861 15.719 11.3643 15.42 10.8321 14.8878C10.2998 14.3555 10.0008 13.6337 10.0008 12.881C10.0008 12.1283 10.2998 11.4065 10.8321 10.8742C11.3643 10.342 12.0861 10.043 12.8388 10.043C13.5915 10.043 14.3134 10.342 14.8456 10.8742C15.3778 11.4065 15.6768 12.1283 15.6768 12.881C15.6768 13.6337 15.3778 14.3555 14.8456 14.8878C14.3134 15.42 13.5915 15.719 12.8388 15.719ZM33.6197 33.6178H28.7265V25.96C28.7265 24.134 28.6935 21.7855 26.1818 21.7855C23.6335 21.7855 23.2467 23.7765 23.2467 25.8317V33.6197H18.3572V17.8713H23.0505V20.0237H23.1183C23.7692 18.7862 25.3678 17.4808 27.7457 17.4808C32.703 17.4808 33.6178 20.7405 33.6178 24.9828L33.6197 33.6178Z" fill="white"/>
</svg>
