<svg width="40" height="40" viewBox="0 0 40 40" fill="none" xmlns="http://www.w3.org/2000/svg">
<path d="M14.1083 18.8218C15.9967 16.9334 19.29 16.9334 21.1783 18.8218L22.3567 20.0001L24.7133 17.6434L23.535 16.4651C21.9633 14.8918 19.87 14.0234 17.6433 14.0234C15.4167 14.0234 13.3233 14.8918 11.7517 16.4651L8.215 20.0001C6.65549 21.5646 5.77979 23.6836 5.77979 25.8926C5.77979 28.1016 6.65549 30.2206 8.215 31.7851C8.98812 32.5593 9.90661 33.1732 10.9177 33.5913C11.9288 34.0095 13.0125 34.2237 14.1067 34.2218C15.2011 34.2241 16.2852 34.0099 17.2966 33.5918C18.308 33.1736 19.2267 32.5596 20 31.7851L21.1783 30.6068L18.8217 28.2501L17.6433 29.4284C16.7041 30.3635 15.4328 30.8884 14.1075 30.8884C12.7822 30.8884 11.5109 30.3635 10.5717 29.4284C9.63584 28.4897 9.11034 27.2182 9.11034 25.8926C9.11034 24.567 9.63584 23.2956 10.5717 22.3568L14.1083 18.8218Z" fill="#858D9B"/>
<path d="M20 8.21491L18.8217 9.39324L21.1783 11.7499L22.3567 10.5716C23.2959 9.63656 24.5672 9.11162 25.8925 9.11162C27.2178 9.11162 28.4891 9.63656 29.4283 10.5716C30.3642 11.5104 30.8897 12.7819 30.8897 14.1074C30.8897 15.433 30.3642 16.7045 29.4283 17.6432L25.8917 21.1782C24.0033 23.0666 20.71 23.0666 18.8217 21.1782L17.6433 19.9999L15.2867 22.3566L16.465 23.5349C18.0367 25.1082 20.13 25.9766 22.3567 25.9766C24.5833 25.9766 26.6767 25.1082 28.2483 23.5349L31.785 19.9999C33.3445 18.4354 34.2202 16.3164 34.2202 14.1074C34.2202 11.8984 33.3445 9.77943 31.785 8.21491C30.2209 6.65458 28.1018 5.77832 25.8925 5.77832C23.6832 5.77832 21.5641 6.65458 20 8.21491Z" fill="#858D9B"/>
</svg>
