<svg width="295" height="72" viewBox="0 0 295 72" fill="none" xmlns="http://www.w3.org/2000/svg">
<path d="M12.48 46.808L2.736 36.2L12.48 25.592H22.8L13.008 36.2L22.8 46.808H12.48ZM47.7015 7.4L34.8375 61.976H26.9175L39.7815 7.4H47.7015ZM51.2115 25.592H61.5315L71.2755 36.2L61.5315 46.808H51.2115L61.0035 36.2L51.2115 25.592ZM99.9281 19.304C103.48 19.304 106.584 20.008 109.24 21.416C111.896 22.824 113.944 24.808 115.384 27.368C116.856 29.896 117.592 32.824 117.592 36.152C117.592 39.448 116.856 42.376 115.384 44.936C113.944 47.496 111.88 49.48 109.192 50.888C106.536 52.296 103.448 53 99.9281 53H87.3041V19.304H99.9281ZM99.4001 45.896C102.504 45.896 104.92 45.048 106.648 43.352C108.376 41.656 109.24 39.256 109.24 36.152C109.24 33.048 108.376 30.632 106.648 28.904C104.92 27.176 102.504 26.312 99.4001 26.312H95.5121V45.896H99.4001ZM147.427 39.176C147.427 39.944 147.379 40.744 147.283 41.576H128.707C128.835 43.24 129.363 44.52 130.291 45.416C131.251 46.28 132.419 46.712 133.795 46.712C135.843 46.712 137.267 45.848 138.067 44.12H146.803C146.355 45.88 145.539 47.464 144.355 48.872C143.203 50.28 141.747 51.384 139.987 52.184C138.227 52.984 136.259 53.384 134.083 53.384C131.459 53.384 129.123 52.824 127.075 51.704C125.027 50.584 123.427 48.984 122.275 46.904C121.123 44.824 120.547 42.392 120.547 39.608C120.547 36.824 121.107 34.392 122.227 32.312C123.379 30.232 124.979 28.632 127.027 27.512C129.075 26.392 131.427 25.832 134.083 25.832C136.675 25.832 138.979 26.376 140.995 27.464C143.011 28.552 144.579 30.104 145.699 32.12C146.851 34.136 147.427 36.488 147.427 39.176ZM139.027 37.016C139.027 35.608 138.547 34.488 137.587 33.656C136.627 32.824 135.427 32.408 133.987 32.408C132.611 32.408 131.443 32.808 130.483 33.608C129.555 34.408 128.979 35.544 128.755 37.016H139.027ZM163.805 45.32L169.613 26.216H178.349L168.845 53H158.717L149.213 26.216H157.997L163.805 45.32ZM203.74 19.304V25.88H190.012V32.984H200.284V39.368H190.012V53H181.804V19.304H203.74ZM220.246 53.384C217.622 53.384 215.254 52.824 213.142 51.704C211.062 50.584 209.414 48.984 208.198 46.904C207.014 44.824 206.422 42.392 206.422 39.608C206.422 36.856 207.03 34.44 208.246 32.36C209.462 30.248 211.126 28.632 213.238 27.512C215.35 26.392 217.718 25.832 220.342 25.832C222.966 25.832 225.334 26.392 227.446 27.512C229.558 28.632 231.222 30.248 232.438 32.36C233.654 34.44 234.262 36.856 234.262 39.608C234.262 42.36 233.638 44.792 232.39 46.904C231.174 48.984 229.494 50.584 227.35 51.704C225.238 52.824 222.87 53.384 220.246 53.384ZM220.246 46.28C221.814 46.28 223.142 45.704 224.23 44.552C225.35 43.4 225.91 41.752 225.91 39.608C225.91 37.464 225.366 35.816 224.278 34.664C223.222 33.512 221.91 32.936 220.342 32.936C218.742 32.936 217.414 33.512 216.358 34.664C215.302 35.784 214.774 37.432 214.774 39.608C214.774 41.752 215.286 43.4 216.31 44.552C217.366 45.704 218.678 46.28 220.246 46.28ZM246.825 17.48V53H238.617V17.48H246.825ZM256.901 23.432C255.461 23.432 254.277 23.016 253.349 22.184C252.453 21.32 252.005 20.264 252.005 19.016C252.005 17.736 252.453 16.68 253.349 15.848C254.277 14.984 255.461 14.552 256.901 14.552C258.309 14.552 259.461 14.984 260.357 15.848C261.285 16.68 261.749 17.736 261.749 19.016C261.749 20.264 261.285 21.32 260.357 22.184C259.461 23.016 258.309 23.432 256.901 23.432ZM260.981 26.216V53H252.773V26.216H260.981ZM279.121 53.384C276.497 53.384 274.129 52.824 272.017 51.704C269.937 50.584 268.289 48.984 267.073 46.904C265.889 44.824 265.297 42.392 265.297 39.608C265.297 36.856 265.905 34.44 267.121 32.36C268.337 30.248 270.001 28.632 272.113 27.512C274.225 26.392 276.593 25.832 279.217 25.832C281.841 25.832 284.209 26.392 286.321 27.512C288.433 28.632 290.097 30.248 291.313 32.36C292.529 34.44 293.137 36.856 293.137 39.608C293.137 42.36 292.513 44.792 291.265 46.904C290.049 48.984 288.369 50.584 286.225 51.704C284.113 52.824 281.745 53.384 279.121 53.384ZM279.121 46.28C280.689 46.28 282.017 45.704 283.105 44.552C284.225 43.4 284.785 41.752 284.785 39.608C284.785 37.464 284.241 35.816 283.153 34.664C282.097 33.512 280.785 32.936 279.217 32.936C277.617 32.936 276.289 33.512 275.233 34.664C274.177 35.784 273.649 37.432 273.649 39.608C273.649 41.752 274.161 43.4 275.185 44.552C276.241 45.704 277.553 46.28 279.121 46.28Z" fill="#AFB7C5"/>
<path d="M178.828 57.8H294.529V60.2H178.828V57.8Z" fill="#AFB7C5"/>
</svg>
