<svg width="34" height="26" viewBox="0 0 34 26" fill="none" xmlns="http://www.w3.org/2000/svg">
<path d="M28.2166 1.01666L26.0833 2.68333L16.9999 9.43333L7.91659 2.61666L5.78325 0.949996C5.28068 0.534238 4.66717 0.275063 4.01873 0.20458C3.3703 0.134097 2.71543 0.255403 2.13527 0.55347C1.5551 0.851537 1.07513 1.31327 0.75482 1.88145C0.434509 2.44964 0.287933 3.09932 0.333253 3.75V23.0667C0.333253 23.6678 0.572061 24.2444 0.997144 24.6694C1.42223 25.0945 1.99876 25.3333 2.59992 25.3333H7.91659V12.4667L16.9999 19.2833L26.0833 12.4667V25.3333H31.3999C32.0011 25.3333 32.5776 25.0945 33.0027 24.6694C33.4278 24.2444 33.6666 23.6678 33.6666 23.0667V3.75C33.6979 3.10493 33.5411 2.46467 33.2153 1.90703C32.8896 1.3494 32.4088 0.898407 31.8315 0.608881C31.2542 0.319354 30.6053 0.203762 29.9635 0.276155C29.3218 0.348548 28.7149 0.605807 28.2166 1.01666Z" fill="#AFB7C5"/>
</svg>
