<svg width="176" height="34" viewBox="0 0 176 34" fill="none" xmlns="http://www.w3.org/2000/svg">
<path d="M31.0916 13.0036C31.0025 12.7413 30.8386 12.5109 30.6201 12.3407C30.4016 12.1705 30.138 12.068 29.8619 12.0459L21.7855 11.4042L18.2906 3.66777C18.1793 3.4186 17.9982 3.20696 17.7693 3.0584C17.5404 2.90984 17.2734 2.83072 17.0005 2.83057C16.7276 2.83042 16.4604 2.90925 16.2314 3.05756C16.0023 3.20586 15.821 3.4173 15.7094 3.66635L12.2145 11.4042L4.13809 12.0459C3.86673 12.0674 3.60731 12.1667 3.39087 12.3317C3.17443 12.4968 3.01012 12.7207 2.91762 12.9767C2.82511 13.2327 2.80831 13.51 2.86924 13.7753C2.93017 14.0406 3.06624 14.2827 3.26117 14.4727L9.22958 20.2909L7.11875 29.4313C7.05466 29.7079 7.0752 29.9975 7.17771 30.2623C7.28023 30.5272 7.45998 30.7551 7.69364 30.9166C7.9273 31.078 8.20409 31.1655 8.48808 31.1676C8.77207 31.1698 9.05016 31.0865 9.28625 30.9287L17 25.7862L24.7138 30.9287C24.9551 31.0889 25.2396 31.1714 25.5292 31.165C25.8188 31.1587 26.0995 31.0638 26.3336 30.8932C26.5676 30.7225 26.7438 30.4843 26.8384 30.2105C26.933 29.9368 26.9416 29.6406 26.8628 29.3619L24.2718 20.2952L30.6978 14.5124C31.1185 14.1327 31.2729 13.5405 31.0916 13.0036Z" fill="#FFCB11"/>
<path d="M68.0916 13.0036C68.0025 12.7413 67.8386 12.5109 67.6201 12.3407C67.4016 12.1705 67.138 12.068 66.8619 12.0459L58.7855 11.4042L55.2906 3.66777C55.1793 3.4186 54.9982 3.20696 54.7693 3.0584C54.5404 2.90984 54.2734 2.83072 54.0005 2.83057C53.7276 2.83042 53.4604 2.90925 53.2314 3.05756C53.0023 3.20586 52.821 3.4173 52.7094 3.66635L49.2145 11.4042L41.1381 12.0459C40.8667 12.0674 40.6073 12.1667 40.3909 12.3317C40.1744 12.4968 40.0101 12.7207 39.9176 12.9767C39.8251 13.2327 39.8083 13.51 39.8692 13.7753C39.9302 14.0406 40.0662 14.2827 40.2612 14.4727L46.2296 20.2909L44.1188 29.4313C44.0547 29.7079 44.0752 29.9975 44.1777 30.2623C44.2802 30.5272 44.46 30.7551 44.6936 30.9166C44.9273 31.078 45.2041 31.1655 45.4881 31.1676C45.7721 31.1698 46.0502 31.0865 46.2862 30.9287L54 25.7862L61.7137 30.9287C61.9551 31.0889 62.2396 31.1714 62.5292 31.165C62.8188 31.1587 63.0995 31.0638 63.3336 30.8932C63.5676 30.7225 63.7438 30.4843 63.8384 30.2105C63.933 29.9368 63.9416 29.6406 63.8628 29.3619L61.2717 20.2952L67.6978 14.5124C68.1185 14.1327 68.2729 13.5405 68.0916 13.0036Z" fill="#FFCB11"/>
<g clip-path="url(#clip0_10_382)">
<path d="M102.258 13.173C102.169 12.9108 102.005 12.6803 101.787 12.5101C101.568 12.3399 101.305 12.2375 101.029 12.2154L92.9522 11.5736L89.4573 3.8372C89.346 3.58803 89.1649 3.37639 88.936 3.22784C88.7071 3.07928 88.4401 3.00015 88.1672 3C87.8943 2.99985 87.6271 3.07869 87.3981 3.22699C87.169 3.3753 86.9877 3.58674 86.8761 3.83579L83.3812 11.5736L75.3048 12.2154C75.0334 12.2369 74.774 12.3361 74.5576 12.5012C74.3411 12.6662 74.1768 12.8902 74.0843 13.1462C73.9918 13.4022 73.975 13.6794 74.0359 13.9447C74.0969 14.21 74.2329 14.4521 74.4279 14.6421L80.3963 20.4604L78.2855 29.6007C78.2214 29.8774 78.2419 30.1669 78.3444 30.4318C78.4469 30.6966 78.6267 30.9246 78.8603 31.086C79.094 31.2474 79.3708 31.3349 79.6548 31.337C79.9388 31.3392 80.2169 31.256 80.453 31.0981L88.1667 25.9556L95.8805 31.0981C96.1218 31.2583 96.4063 31.3408 96.6959 31.3345C96.9855 31.3281 97.2662 31.2332 97.5003 31.0626C97.7343 30.892 97.9105 30.6537 98.0051 30.38C98.0997 30.1062 98.1083 29.81 98.0295 29.5313L95.4385 20.4646L101.864 14.6818C102.285 14.3021 102.44 13.71 102.258 13.173Z" fill="#FFCB11"/>
</g>
<path d="M136.092 13.0036C136.003 12.7413 135.839 12.5109 135.62 12.3407C135.402 12.1705 135.138 12.068 134.862 12.0459L126.786 11.4042L123.291 3.66777C123.179 3.4186 122.998 3.20696 122.769 3.0584C122.54 2.90984 122.273 2.83072 122 2.83057C121.728 2.83042 121.46 2.90925 121.231 3.05756C121.002 3.20586 120.821 3.4173 120.709 3.66635L117.215 11.4042L109.138 12.0459C108.867 12.0674 108.607 12.1667 108.391 12.3317C108.174 12.4968 108.01 12.7207 107.918 12.9767C107.825 13.2327 107.808 13.51 107.869 13.7753C107.93 14.0406 108.066 14.2827 108.261 14.4727L114.23 20.2909L112.119 29.4313C112.055 29.7079 112.075 29.9975 112.178 30.2623C112.28 30.5272 112.46 30.7551 112.694 30.9166C112.927 31.078 113.204 31.1655 113.488 31.1676C113.772 31.1698 114.05 31.0865 114.286 30.9287L122 25.7862L129.714 30.9287C129.955 31.0889 130.24 31.1714 130.529 31.165C130.819 31.1587 131.1 31.0638 131.334 30.8932C131.568 30.7225 131.744 30.4843 131.838 30.2105C131.933 29.9368 131.942 29.6406 131.863 29.3619L129.272 20.2952L135.698 14.5124C136.119 14.1327 136.273 13.5405 136.092 13.0036Z" fill="#FFCB11"/>
<path d="M173.092 13.0036C173.003 12.7413 172.839 12.5109 172.62 12.3407C172.402 12.1705 172.138 12.068 171.862 12.0459L163.786 11.4042L160.291 3.66777C160.179 3.4186 159.998 3.20696 159.769 3.0584C159.54 2.90984 159.273 2.83072 159 2.83057C158.728 2.83042 158.46 2.90925 158.231 3.05756C158.002 3.20586 157.821 3.4173 157.709 3.66635L154.215 11.4042L146.138 12.0459C145.867 12.0674 145.607 12.1667 145.391 12.3317C145.174 12.4968 145.01 12.7207 144.918 12.9767C144.825 13.2327 144.808 13.51 144.869 13.7753C144.93 14.0406 145.066 14.2827 145.261 14.4727L151.23 20.2909L149.119 29.4313C149.055 29.7079 149.075 29.9975 149.178 30.2623C149.28 30.5272 149.46 30.7551 149.694 30.9166C149.927 31.078 150.204 31.1655 150.488 31.1676C150.772 31.1698 151.05 31.0865 151.286 30.9287L159 25.7862L166.714 30.9287C166.955 31.0889 167.24 31.1714 167.529 31.165C167.819 31.1587 168.1 31.0638 168.334 30.8932C168.568 30.7225 168.744 30.4843 168.838 30.2105C168.933 29.9368 168.942 29.6406 168.863 29.3619L166.272 20.2952L172.698 14.5124C173.119 14.1327 173.273 13.5405 173.092 13.0036Z" fill="#FFCB11"/>
<defs>
<clipPath id="clip0_10_382">
<rect width="34" height="34" fill="white" transform="translate(68)"/>
</clipPath>
</defs>
</svg>
